# xmcd CD database file
#
# Track frame offsets:
#	150
#	16082
#	32997
#	45352
#	60970
#	80140
#	96825
#	106637
#	115807
#	133985
#	141092
#	147125
#	163900
#	179612
#	197350
#
# Disc length: 2773 seconds
#
# Revision: 4
# Processed by: cddbd v1.5.1PL2 Copyright (c) Steve Scherf et al.
# Submitted via: jetAudio 5
#
DISCID=c70ad30f
DTITLE=Esham - Judgement Day Vol. 2
DYEAR=1900
DGENRE=
TTITLE0=Judgement Day
TTITLE1=Living In Incest
TTITLE2=Play Dead
TTITLE3=13 Ways
TTITLE4=Finger In The Cake Mix
TTITLE5=The Devil Gets Funky
TTITLE6=Crib Death
TTITLE7=Dead By Day
TTITLE8=Wake The Dead
TTITLE9=Dumb Bitch
TTITLE10=U Wanna Know Something
TTITLE11=Hoe Role
TTITLE12=Dyin To Be Down
TTITLE13=Sell Me Yo Soul
TTITLE14=We Got Some NonBelievers
EXTD=
EXTT0=
EXTT1=
EXTT2=
EXTT3=
EXTT4=
EXTT5=
EXTT6=
EXTT7=
EXTT8=
EXTT9=
EXTT10=
EXTT11=
EXTT12=
EXTT13=
EXTT14=
PLAYORDER=
